<svg id="EGLD" xmlns="http://www.w3.org/2000/svg" xmlns:xlink="http://www.w3.org/1999/xlink" width="18" height="18" viewBox="0 0 18 18">
  <defs>
    <clipPath id="clip-path">
      <rect id="Rectangle_88" data-name="Rectangle 88" width="18" height="18"/>
    </clipPath>
  </defs>
  <g id="Group_409" data-name="Group 409" transform="translate(0 0)" clip-path="url(#clip-path)">
    <path id="Path_2940" data-name="Path 2940" d="M89,0l.247.015a8.1,8.1,0,0,1,3.005.757,9.411,9.411,0,0,1,1.7,1.034l.006,0L91.921,3.838l-.188-.114a5.756,5.756,0,0,0-1.965-.734,6.064,6.064,0,0,0-3.073.275,5.447,5.447,0,0,0-1.1.553.053.053,0,0,1-.082-.008q-.976-.984-1.955-1.966l-.025-.027.139-.107A8.571,8.571,0,0,1,86,.457,7.7,7.7,0,0,1,87.64.072c.262-.03.526-.044.79-.065.015,0,.029,0,.044-.007Z" transform="translate(-79.758 -0.039)"/>
    <path id="Path_2941" data-name="Path 2941" d="M312.689,82.859a9.281,9.281,0,0,1,.58.825,8.109,8.109,0,0,1,1.035,2.485,7.7,7.7,0,0,1,.175,1.136,10.344,10.344,0,0,1,.011,1.3,7.7,7.7,0,0,1-.673,2.765A9.11,9.11,0,0,1,312.7,93.23l-.011.013-2.032-2.015a5.708,5.708,0,0,0,.963-3.158,5.552,5.552,0,0,0-.962-3.155l2.032-2.057" transform="translate(-296.505 -79.12)"/>
    <path id="Path_2942" data-name="Path 2942" d="M85.248,311.283a5.367,5.367,0,0,0,3.182.985,5.621,5.621,0,0,0,3.183-1l2.018,2.029-.138.1a8.917,8.917,0,0,1-2.319,1.243,8.148,8.148,0,0,1-1.619.392,8.623,8.623,0,0,1-1.618.068,8.036,8.036,0,0,1-3.457-.973,9.06,9.06,0,0,1-1.229-.806l-.036-.029,2.033-2.014" transform="translate(-79.453 -297.116)"/>
    <path id="Path_2943" data-name="Path 2943" d="M1.8,94.995a8.421,8.421,0,0,1-.02-10.373l2.017,2.013a5.509,5.509,0,0,0-.954,3.149A5.618,5.618,0,0,0,3.8,92.94l-2,2.055" transform="translate(-0.037 -80.802)"/>
    <path id="Path_2944" data-name="Path 2944" d="M327.358,328.037a1.422,1.422,0,1,1,1.425-1.422,1.422,1.422,0,0,1-1.425,1.422" transform="translate(-311.089 -310.405)"/>
    <path id="Path_2945" data-name="Path 2945" d="M329.556,8.235a1.412,1.412,0,1,1-1.411-1.423,1.412,1.412,0,0,1,1.411,1.423" transform="translate(-311.848 -6.54)"/>
    <path id="Path_2946" data-name="Path 2946" d="M10.163,326.61a1.422,1.422,0,1,1-.883-1.314,1.423,1.423,0,0,1,.883,1.314" transform="translate(-7.025 -310.402)"/>
    <path id="Path_2947" data-name="Path 2947" d="M8.295,6.812A1.417,1.417,0,1,1,6.871,8.223,1.428,1.428,0,0,1,8.295,6.812" transform="translate(-6.596 -6.54)"/>
    <path id="Path_2948" data-name="Path 2948" d="M252.055,129.009a.346.346,0,0,1-.293-.131.322.322,0,0,1,.157-.515.4.4,0,0,1,.4.076.317.317,0,0,1-.092.533,1.087,1.087,0,0,1-.175.049Z" transform="translate(-240.23 -122.526)"/>
    <path id="Path_2949" data-name="Path 2949" d="M148.477,231.669a.368.368,0,0,1-.341-.221.313.313,0,0,1,.1-.364.4.4,0,0,1,.517.009.3.3,0,0,1,.1.312.349.349,0,0,1-.26.249.888.888,0,0,1-.111.015" transform="translate(-141.386 -220.502)"/>
    <path id="Path_2950" data-name="Path 2950" d="M314.153,66.564a.372.372,0,0,1-.36-.3.343.343,0,0,1,.28-.368.383.383,0,0,1,.4.135.3.3,0,0,1-.068.446.43.43,0,0,1-.248.083" transform="translate(-299.498 -62.923)"/>
    <path id="Path_2951" data-name="Path 2951" d="M86.132,87.585a.29.29,0,0,1-.152.235.393.393,0,0,1-.445,0,.312.312,0,0,1,0-.533.392.392,0,0,1,.542.1.311.311,0,0,1,.052.2" transform="translate(-81.525 -83.281)"/>
    <path id="Path_2952" data-name="Path 2952" d="M148.472,149.707a.338.338,0,1,1,.007-.671.351.351,0,0,1,.334.363c-.009.134-.184.345-.343.309" transform="translate(-141.369 -142.276)"/>
    <path id="Path_2953" data-name="Path 2953" d="M210.96,210.291a.356.356,0,0,1,.365.352.374.374,0,0,1-.363.322.4.4,0,0,1-.343-.25.342.342,0,0,1,.34-.424" transform="translate(-201.028 -200.742)"/>
    <path id="Path_2954" data-name="Path 2954" d="M86.338,293.417a.331.331,0,0,1,.069.658.315.315,0,0,1-.319-.08.307.307,0,0,1-.092-.357.361.361,0,0,1,.343-.221" transform="translate(-82.084 -280.077)"/>
    <path id="Path_2955" data-name="Path 2955" d="M314.352,314.448a.355.355,0,0,1,.465-.32.331.331,0,0,1,.242.405.362.362,0,0,1-.7-.023c0-.02-.006-.041-.008-.062" transform="translate(-300.032 -299.828)"/>
    <path id="Path_2956" data-name="Path 2956" d="M232.475,149.746c-.154.032-.323-.15-.329-.31a.343.343,0,0,1,.318-.361.337.337,0,1,1,.011.672" transform="translate(-221.581 -142.316)"/>
    <path id="Path_2957" data-name="Path 2957" d="M170.078,210.29a.328.328,0,0,1,.34.326.347.347,0,0,1-.378.349.341.341,0,0,1-.3-.338.33.33,0,0,1,.336-.337" transform="translate(-162.028 -200.741)"/>
    <path id="Path_2958" data-name="Path 2958" d="M294.96,293.7a.33.33,0,0,1-.335.331.338.338,0,1,1,.335-.331" transform="translate(-280.881 -280.021)"/>
    <path id="Path_2959" data-name="Path 2959" d="M66.282,66.59a.34.34,0,0,1-.364-.357.329.329,0,0,1,.348-.317.337.337,0,0,1,.326.343.341.341,0,0,1-.311.331" transform="translate(-62.945 -62.949)"/>
    <path id="Path_2960" data-name="Path 2960" d="M108.27,273.051a.338.338,0,1,1-.336-.337.331.331,0,0,1,.336.337" transform="translate(-102.718 -260.319)"/>
    <path id="Path_2961" data-name="Path 2961" d="M272.7,272.714a.336.336,0,1,1-.239.1.336.336,0,0,1,.239-.1" transform="translate(-259.957 -260.319)"/>
    <path id="Path_2962" data-name="Path 2962" d="M128.662,128.924a.338.338,0,1,1,.336-.34.336.336,0,0,1-.336.34" transform="translate(-122.499 -122.44)"/>
    <path id="Path_2963" data-name="Path 2963" d="M169.751,170.088a.331.331,0,0,1,.339-.325.336.336,0,1,1-.339.325" transform="translate(-162.036 -162.062)"/>
    <path id="Path_2964" data-name="Path 2964" d="M190.8,190.812a.333.333,0,0,1,.337.337.338.338,0,1,1-.676-.009.328.328,0,0,1,.339-.328" transform="translate(-181.802 -182.151)"/>
    <path id="Path_2965" data-name="Path 2965" d="M65.919,314.414a.338.338,0,1,1,.343.333.338.338,0,0,1-.343-.333" transform="translate(-62.946 -299.791)"/>
    <path id="Path_2966" data-name="Path 2966" d="M253.524,252.411a.338.338,0,1,1-.34-.328.338.338,0,0,1,.34.328" transform="translate(-241.337 -240.628)"/>
    <path id="Path_2967" data-name="Path 2967" d="M210.547,170.051a.334.334,0,1,1,.1.237.338.338,0,0,1-.1-.237" transform="translate(-200.968 -162.012)"/>
    <path id="Path_2968" data-name="Path 2968" d="M129,252.422a.335.335,0,0,1-.337.337.343.343,0,0,1-.34-.337.338.338,0,0,1,.676,0" transform="translate(-122.499 -240.637)"/>
    <path id="Path_2969" data-name="Path 2969" d="M232.5,231.568a.338.338,0,1,1,.343-.329.339.339,0,0,1-.343.329" transform="translate(-221.605 -220.405)"/>
    <path id="Path_2970" data-name="Path 2970" d="M107.949,107.67a.333.333,0,0,1,.339.334.338.338,0,0,1-.676,0,.331.331,0,0,1,.337-.336" transform="translate(-102.735 -102.8)"/>
    <path id="Path_2971" data-name="Path 2971" d="M272.989,108.222a.338.338,0,1,1,.335-.339.336.336,0,0,1-.335.339" transform="translate(-260.233 -102.681)"/>
    <path id="Path_2972" data-name="Path 2972" d="M294.96,87.687a.338.338,0,1,1-.338-.33.338.338,0,0,1,.338.33" transform="translate(-280.881 -83.412)"/>
  </g>
</svg>
